<svg width="256" height="256" version="1.1" viewBox="0 0 16 16" xmlns="http://www.w3.org/2000/svg" xmlns:xlink="http://www.w3.org/1999/xlink">
    <path d="m13.338 8.4846h2.6575l-2.4625-8.4846h-2.9989l-2.4747 8.4846h2.621l.31695-1.6457h2.0114zm-1.987-3.4011.6461-3.328.65829 3.328z" fill="#005dff"/>
    <path d="m14.727 9.4903h-5.2419v1.7554h2.4625l-2.7063 3.072v1.6823h5.3638l.20724-1.7798h-2.755l2.6697-3.0598z" fill="#005dff"/>
    <use transform="translate(-1e-7,8.362)" width="100%" height="100%" fill="none" xlink:href="#a"/>
    <path id="a" d="m4 .00042295c.52325-2.05e-9 1.0557 1.8505 1.479 2.1581.42332.30756 2.3478.24211 2.5095.73975.16169.49764-1.4337 1.5759-1.5954 2.0735-.16169.49764.49525 2.3077.071928 2.6153s-1.9418-.87657-2.465-.87657-2.0417 1.1841-2.465.87657c-.42332-.30756.23362-2.1176.071928-2.6153-.16169-.49764-1.7571-1.5759-1.5954-2.0735.16169-.49764 2.0862-.43219 2.5095-.73975.42332-.30756.95577-2.1581 1.479-2.1581z" fill="#ffc500"/>
</svg>
