<?xml version="1.0" encoding="UTF-8" standalone="no"?>
<!-- Created with Inkscape (http://www.inkscape.org/) -->

<svg
   xmlns:dc="http://purl.org/dc/elements/1.1/"
   xmlns:cc="http://creativecommons.org/ns#"
   xmlns:rdf="http://www.w3.org/1999/02/22-rdf-syntax-ns#"
   xmlns:svg="http://www.w3.org/2000/svg"
   xmlns="http://www.w3.org/2000/svg"
   xmlns:xlink="http://www.w3.org/1999/xlink"
   xmlns:sodipodi="http://sodipodi.sourceforge.net/DTD/sodipodi-0.dtd"
   xmlns:inkscape="http://www.inkscape.org/namespaces/inkscape"
   width="16"
   height="16"
   viewBox="0 0 16 16"
   version="1.1"
   id="svg8"
   inkscape:version="0.92.2 5c3e80d, 2017-08-06"
   sodipodi:docname="sort-bookmarks.inkscape.svg">
  <defs
     id="defs2">
    <inkscape:path-effect
       effect="spiro"
       id="path-effect8078"
       is_visible="true" />
    <marker
       inkscape:stockid="Torso"
       orient="auto"
       refY="0.0"
       refX="0.0"
       id="Torso"
       style="overflow:visible"
       inkscape:isstock="true">
      <g
         id="g7242"
         transform="scale(0.7)"
         style="stroke:#000000;stroke-opacity:1;fill:#000000;fill-opacity:1">
        <path
           id="path7228"
           d="M -4.7792281,-3.2395420 C -2.4288541,-2.8736027 0.52103922,-1.3019943 0.25792722,0.38794346 C -0.0051877922,2.0778819 -2.2126741,2.6176539 -4.5630471,2.2517169 C -6.9134221,1.8857769 -8.5210350,0.75201414 -8.2579220,-0.93792336 C -7.9948090,-2.6278615 -7.1296041,-3.6054813 -4.7792281,-3.2395420 z "
           style="fill:#000000;fill-opacity:1;fill-rule:evenodd;stroke:#000000;stroke-width:1.25;stroke-opacity:1" />
        <path
           id="path7230"
           d="M 4.4598789,0.088665736 C -2.5564571,-4.3783320 5.2248769,-3.9061806 -0.84829578,-8.7197331"
           style="fill:#000000;fill-opacity:1;fill-rule:evenodd;stroke:#000000;stroke-width:1pt;stroke-opacity:1" />
        <path
           id="path7232"
           d="M 4.9298719,0.057520736 C -1.3872731,1.7494689 1.8027579,5.4782079 -4.9448731,7.5462725"
           style="fill:#000000;fill-opacity:1;fill-rule:evenodd;stroke:#000000;stroke-width:1pt;stroke-opacity:1" />
        <rect
           id="rect7234"
           transform="matrix(0.527536,-0.849533,0.887668,0.460484,0,0)"
           y="-1.7408575"
           x="-10.391706"
           height="2.7608147"
           width="2.6366582"
           style="fill-rule:evenodd;stroke-width:1pt;stroke:#000000;stroke-opacity:1;fill:#000000;fill-opacity:1" />
        <rect
           id="rect7236"
           transform="matrix(0.671205,-0.741272,0.790802,0.612072,0,0)"
           y="-7.9629307"
           x="4.9587269"
           height="2.8614161"
           width="2.7327356"
           style="fill-rule:evenodd;stroke-width:1pt;stroke:#000000;stroke-opacity:1;fill:#000000;fill-opacity:1" />
        <path
           id="path7238"
           transform="matrix(0,-1.109517,1.109517,0,25.96648,19.71619)"
           d="M 16.779951 -28.685045 A 0.60731727 0.60731727 0 1 0 15.565317,-28.685045 A 0.60731727 0.60731727 0 1 0 16.779951 -28.685045 z"
           style="fill:#000000;fill-opacity:1;fill-rule:evenodd;stroke:#000000;stroke-width:1pt;stroke-opacity:1" />
        <path
           id="path7240"
           transform="matrix(0,-1.109517,1.109517,0,26.82450,16.99126)"
           d="M 16.779951 -28.685045 A 0.60731727 0.60731727 0 1 0 15.565317,-28.685045 A 0.60731727 0.60731727 0 1 0 16.779951 -28.685045 z"
           style="fill:#000000;fill-opacity:1;fill-rule:evenodd;stroke:#000000;stroke-width:1pt;stroke-opacity:1" />
      </g>
    </marker>
    <marker
       inkscape:stockid="Arrow1Mend"
       orient="auto"
       refY="0.0"
       refX="0.0"
       id="Arrow1Mend"
       style="overflow:visible;"
       inkscape:isstock="true">
      <path
         id="path7025"
         d="M 0.0,0.0 L 5.0,-5.0 L -12.5,0.0 L 5.0,5.0 L 0.0,0.0 z "
         style="fill-rule:evenodd;stroke:#000000;stroke-width:1pt;stroke-opacity:1;fill:#000000;fill-opacity:1"
         transform="scale(0.4) rotate(180) translate(10,0)" />
    </marker>
    <marker
       inkscape:stockid="Arrow2Lend"
       orient="auto"
       refY="0.0"
       refX="0.0"
       id="Arrow2Lend"
       style="overflow:visible;"
       inkscape:isstock="true">
      <path
         id="path7037"
         style="fill-rule:evenodd;stroke-width:0.625;stroke-linejoin:round;stroke:#000000;stroke-opacity:1;fill:#000000;fill-opacity:1"
         d="M 8.7185878,4.0337352 L -2.2072895,0.016013256 L 8.7185884,-4.0017078 C 6.9730900,-1.6296469 6.9831476,1.6157441 8.7185878,4.0337352 z "
         transform="scale(1.1) rotate(180) translate(1,0)" />
    </marker>
    <marker
       inkscape:stockid="Arrow1Lend"
       orient="auto"
       refY="0.0"
       refX="0.0"
       id="Arrow1Lend"
       style="overflow:visible;"
       inkscape:isstock="true">
      <path
         id="path7019"
         d="M 0.0,0.0 L 5.0,-5.0 L -12.5,0.0 L 5.0,5.0 L 0.0,0.0 z "
         style="fill-rule:evenodd;stroke:#000000;stroke-width:1pt;stroke-opacity:1;fill:#000000;fill-opacity:1"
         transform="scale(0.8) rotate(180) translate(12.5,0)" />
    </marker>
  </defs>
  <sodipodi:namedview
     id="base"
     pagecolor="#ffffff"
     bordercolor="#666666"
     borderopacity="1.0"
     inkscape:pageopacity="0.0"
     inkscape:pageshadow="2"
     inkscape:zoom="64"
     inkscape:cx="1.8593672"
     inkscape:cy="3.6960961"
     inkscape:document-units="px"
     inkscape:current-layer="layer1"
     showgrid="true"
     units="px"
     showguides="true"
     inkscape:window-width="3738"
     inkscape:window-height="2031"
     inkscape:window-x="102"
     inkscape:window-y="55"
     inkscape:window-maximized="1">
    <inkscape:grid
       type="xygrid"
       id="grid5055" />
  </sodipodi:namedview>
  <metadata
     id="metadata5">
    <rdf:RDF>
      <cc:Work
         rdf:about="">
        <dc:format>image/svg+xml</dc:format>
        <dc:type
           rdf:resource="http://purl.org/dc/dcmitype/StillImage" />
        <dc:title />
      </cc:Work>
    </rdf:RDF>
  </metadata>
  <g
     inkscape:label="Layer 1"
     inkscape:groupmode="layer"
     id="layer1"
     transform="translate(0,-304.53332)">
    <path
       style="color:#000000;font-style:normal;font-variant:normal;font-weight:normal;font-stretch:normal;font-size:medium;line-height:normal;font-family:sans-serif;font-variant-ligatures:normal;font-variant-position:normal;font-variant-caps:normal;font-variant-numeric:normal;font-variant-alternates:normal;font-feature-settings:normal;text-indent:0;text-align:start;text-decoration:none;text-decoration-line:none;text-decoration-style:solid;text-decoration-color:#000000;letter-spacing:normal;word-spacing:normal;text-transform:none;writing-mode:lr-tb;direction:ltr;text-orientation:mixed;dominant-baseline:auto;baseline-shift:baseline;text-anchor:start;white-space:normal;shape-padding:0;clip-rule:nonzero;display:inline;overflow:visible;visibility:visible;opacity:1;isolation:auto;mix-blend-mode:normal;color-interpolation:sRGB;color-interpolation-filters:linearRGB;solid-color:#000000;solid-opacity:1;vector-effect:none;fill:#000000;fill-opacity:1;fill-rule:nonzero;stroke:none;stroke-width:0.65070927;stroke-linecap:butt;stroke-linejoin:miter;stroke-miterlimit:4;stroke-dasharray:none;stroke-dashoffset:0;stroke-opacity:1;color-rendering:auto;image-rendering:auto;shape-rendering:auto;text-rendering:auto;enable-background:accumulate"
       d="m 3.0000916,305.62164 c -0.2036751,0.0146 -0.2685948,0.24452 -0.3473188,0.39905 -0.1223644,0.26139 -0.2020749,0.54405 -0.345084,0.79448 0.1063352,-0.0668 -0.2051562,0.0178 -0.2899198,0.005 -0.2978651,0.031 -0.6092441,0.0133 -0.8930652,0.11934 -0.21735498,0.10202 -0.1023851,0.37532 0.049965,0.47969 0.2386984,0.24004 0.5273162,0.42766 0.7570958,0.67521 -0.03035,-0.12271 -0.047019,0.2002 -0.085047,0.27681 -0.062558,0.29297 -0.1750568,0.58349 -0.1625396,0.88637 0.030078,0.23821 0.3252532,0.21291 0.4718616,0.1009 0.3018686,-0.15332 0.5698494,-0.36943 0.8761131,-0.5119 -0.1252975,-0.009 0.1761052,0.10704 0.2374453,0.16689 0.2590314,0.15024 0.5008319,0.34625 0.7924507,0.42833 0.2362123,0.0452 0.303112,-0.24364 0.2420208,-0.41786 -0.052843,-0.33435 -0.1755378,-0.65596 -0.2159765,-0.99131 -0.047457,0.11836 0.1555339,-0.13432 0.231839,-0.17377 0.223158,-0.19965 0.4837932,-0.36967 0.6522873,-0.62124 0.1157257,-0.21026 -0.1378661,-0.36383 -0.322376,-0.3592 -0.3342763,-0.0535 -0.6779787,-0.0357 -1.0094937,-0.10074 0.096044,0.0806 -0.080192,-0.18989 -0.094348,-0.2746 -0.1210443,-0.27391 -0.2016624,-0.57459 -0.3892861,-0.81242 -0.041236,-0.0415 -0.097727,-0.0706 -0.1566245,-0.069 z m 0,0.49102 c 0.1517539,0.30402 0.2379927,0.64078 0.4156694,0.93072 0.1428372,0.13737 0.3602772,0.0991 0.5417659,0.12728 0.1637898,0.026 0.4819961,4e-4 0.5382484,0.073 -0.2354633,0.22758 -0.5173037,0.40856 -0.7298198,0.65821 -0.086765,0.17833 0.016871,0.37329 0.046263,0.55459 0.025893,0.16379 0.149124,0.45847 0.09727,0.53437 -0.2895007,-0.15328 -0.5485862,-0.36586 -0.8517688,-0.49084 -0.1963851,-0.0273 -0.3498187,0.1314 -0.5131484,0.21542 -0.147714,0.0754 -0.3899511,0.28347 -0.4782234,0.25762 0.056522,-0.32261 0.1784666,-0.63472 0.2035697,-0.96164 -0.034785,-0.19505 -0.2328237,-0.29214 -0.3631948,-0.42142 -0.1172012,-0.11735 -0.3901245,-0.2832 -0.3928722,-0.37514 0.3243001,-0.0462 0.6586989,-0.0268 0.9775158,-0.10378 0.1747707,-0.0933 0.2061282,-0.31172 0.2885827,-0.47579 0.070803,-0.17523 0.1395934,-0.35169 0.2201428,-0.52257 z"
       id="path5061"
       inkscape:connector-curvature="0" />
    <use
       x="0"
       y="0"
       xlink:href="#path5061"
       id="use8068"
       transform="translate(0,5)"
       width="100%"
       height="100%" />
    <use
       x="0"
       y="0"
       xlink:href="#use8068"
       id="use8070"
       transform="translate(0,5)"
       width="100%"
       height="100%" />
    <path
       style="color:#000000;font-style:normal;font-variant:normal;font-weight:normal;font-stretch:normal;font-size:medium;line-height:normal;font-family:sans-serif;font-variant-ligatures:normal;font-variant-position:normal;font-variant-caps:normal;font-variant-numeric:normal;font-variant-alternates:normal;font-feature-settings:normal;text-indent:0;text-align:start;text-decoration:none;text-decoration-line:none;text-decoration-style:solid;text-decoration-color:#000000;letter-spacing:normal;word-spacing:normal;text-transform:none;writing-mode:lr-tb;direction:ltr;text-orientation:mixed;dominant-baseline:auto;baseline-shift:baseline;text-anchor:start;white-space:normal;shape-padding:0;clip-rule:nonzero;display:inline;overflow:visible;visibility:visible;opacity:1;isolation:auto;mix-blend-mode:normal;color-interpolation:sRGB;color-interpolation-filters:linearRGB;solid-color:#000000;solid-opacity:1;vector-effect:none;fill:#000000;fill-opacity:1;fill-rule:evenodd;stroke:none;stroke-width:1;stroke-linecap:butt;stroke-linejoin:miter;stroke-miterlimit:4;stroke-dasharray:none;stroke-dashoffset:0;stroke-opacity:1;color-rendering:auto;image-rendering:auto;shape-rendering:auto;text-rendering:auto;enable-background:accumulate"
       d="M 9.3671875,305.48242 C 8.5431724,305.48202 7.7201359,305.69517 7,306.0957 c 0.1621094,0.29167 0.3242187,0.58333 0.4863281,0.875 1.3702373,-0.78519 3.2095529,-0.60234 4.3962289,0.44042 1.232702,1.02196 1.696444,2.84485 1.102521,4.3318 -0.540454,1.47266 -2.049176,2.5111 -3.6178905,2.4895 -0.6544887,-2.8e-4 -1.3084993,-0.16868 -1.8808594,-0.48633 C 7.3242187,314.03711 7.1621094,314.32812 7,314.61914 c 1.6529951,0.94366 3.850109,0.77959 5.343523,-0.40098 1.523582,-1.14191 2.238561,-3.22559 1.748032,-5.06367 -0.449951,-1.87619 -2.119867,-3.37094 -4.031114,-3.62223 -0.2295031,-0.0331 -0.4613722,-0.0498 -0.6932535,-0.0498 z"
       id="path8076"
       inkscape:connector-curvature="0" />
    <use
       x="0"
       y="0"
       xlink:href="#path8076"
       id="use8080"
       transform="translate(-8e-7,4.35075)"
       width="100%"
       height="100%" />
  </g>
</svg>
