<svg width="16" height="16" version="1.1" viewBox="0 0 16 16" xmlns="http://www.w3.org/2000/svg" xmlns:xlink="http://www.w3.org/1999/xlink">
 <g transform="translate(0 -304.53)">
  <path id="path5061" d="m3.0001 305.62c-.20368.0146-.26859.24452-.34732.39905-.12236.26139-.20207.54405-.34508.79448.10634-.0668-.20516.0178-.28992.005-.29787.031-.60924.0133-.89307.11934-.21735.10202-.10239.37532.049965.47969.2387.24004.52732.42766.7571.67521-.03035-.12271-.047019.2002-.085047.27681-.062558.29297-.17506.58349-.16254.88637.030078.23821.32525.21291.47186.1009.30187-.15332.56985-.36943.87611-.5119-.1253-.009.17611.10704.23745.16689.25903.15024.50083.34625.79245.42833.23621.0452.30311-.24364.24202-.41786-.052843-.33435-.17554-.65596-.21598-.99131-.047457.11836.15553-.13432.23184-.17377.22316-.19965.48379-.36967.65229-.62124.11573-.21026-.13787-.36383-.32238-.3592-.33428-.0535-.67798-.0357-1.0095-.10074.096044.0806-.080192-.18989-.094348-.2746-.12104-.27391-.20166-.57459-.38929-.81242-.041236-.0415-.097727-.0706-.15662-.069zm0 .49102c.15175.30402.23799.64078.41567.93072.14284.13737.36028.0991.54177.12728.16379.026.482 4e-4.53825.073-.23546.22758-.5173.40856-.72982.65821-.086765.17833.016871.37329.046263.55459.025893.16379.14912.45847.09727.53437-.2895-.15328-.54859-.36586-.85177-.49084-.19639-.0273-.34982.1314-.51315.21542-.14771.0754-.38995.28347-.47822.25762.056522-.32261.17847-.63472.20357-.96164-.034785-.19505-.23282-.29214-.36319-.42142-.1172-.11735-.39012-.2832-.39287-.37514.3243-.0462.6587-.0268.97752-.10378.17477-.0933.20613-.31172.28858-.47579.070803-.17523.13959-.35169.22014-.52257z" fill-opacity="context-fill-opacity" fill="context-fill"/>
  <use id="use8068" transform="translate(0,5)" width="100%" height="100%" xlink:href="#path5061"/>
  <use transform="translate(0,5)" width="100%" height="100%" xlink:href="#use8068"/>
  <path id="path8076" d="m9.3672 305.48c-.82402-4e-4-1.6471.21275-2.3672.61328.16211.29167.32422.58333.48633.875 1.3702-.78519 3.2096-.60234 4.3962.44042 1.2327 1.022 1.6964 2.8448 1.1025 4.3318-.54045 1.4727-2.0492 2.5111-3.6179 2.4895-.65449-.00028-1.3085-.16868-1.8809-.48633-.16211.29102-.32422.58203-.48633.87305 1.653.94366 3.8501.77959 5.3435-.40098 1.5236-1.1419 2.2386-3.2256 1.748-5.0637-.44995-1.8762-2.1199-3.3709-4.0311-3.6222-.2295-.0331-.46137-.0498-.69325-.0498z" fill-opacity="context-fill-opacity" fill="context-fill"/>
  <use transform="translate(-8e-7 4.3508)" width="100%" height="100%" xlink:href="#path8076"/>
 </g>
</svg>
