<?xml version="1.0" encoding="UTF-8" standalone="no"?>
<!-- Created with Inkscape (http://www.inkscape.org/) -->

<svg
   xmlns:dc="http://purl.org/dc/elements/1.1/"
   xmlns:cc="http://creativecommons.org/ns#"
   xmlns:rdf="http://www.w3.org/1999/02/22-rdf-syntax-ns#"
   xmlns:svg="http://www.w3.org/2000/svg"
   xmlns="http://www.w3.org/2000/svg"
   xmlns:xlink="http://www.w3.org/1999/xlink"
   xmlns:sodipodi="http://sodipodi.sourceforge.net/DTD/sodipodi-0.dtd"
   xmlns:inkscape="http://www.inkscape.org/namespaces/inkscape"
   sodipodi:docname="sort-bookmarks.inkscape.svg"
   inkscape:version="0.92.2 5c3e80d, 2017-08-06"
   id="svg8"
   version="1.1"
   viewBox="0 0 16 16"
   height="16"
   width="16">
  <defs
     id="defs2">
    <linearGradient
       inkscape:collect="always"
       id="linearGradient1604">
      <stop
         style="stop-color:#000000;stop-opacity:1;"
         offset="0"
         id="stop1600" />
      <stop
         style="stop-color:#000000;stop-opacity:0;"
         offset="1"
         id="stop1602" />
    </linearGradient>
    <inkscape:path-effect
       effect="spiro"
       id="path-effect8078"
       is_visible="true" />
    <marker
       inkscape:stockid="Torso"
       orient="auto"
       refY="0.0"
       refX="0.0"
       id="Torso"
       style="overflow:visible"
       inkscape:isstock="true">
      <g
         id="g7242"
         transform="scale(0.7)"
         style="stroke:#000000;stroke-opacity:1;fill:#000000;fill-opacity:1">
        <path
           id="path7228"
           d="M -4.7792281,-3.2395420 C -2.4288541,-2.8736027 0.52103922,-1.3019943 0.25792722,0.38794346 C -0.0051877922,2.0778819 -2.2126741,2.6176539 -4.5630471,2.2517169 C -6.9134221,1.8857769 -8.5210350,0.75201414 -8.2579220,-0.93792336 C -7.9948090,-2.6278615 -7.1296041,-3.6054813 -4.7792281,-3.2395420 z "
           style="fill:#000000;fill-opacity:1;fill-rule:evenodd;stroke:#000000;stroke-width:1.25;stroke-opacity:1" />
        <path
           id="path7230"
           d="M 4.4598789,0.088665736 C -2.5564571,-4.3783320 5.2248769,-3.9061806 -0.84829578,-8.7197331"
           style="fill:#000000;fill-opacity:1;fill-rule:evenodd;stroke:#000000;stroke-width:1pt;stroke-opacity:1" />
        <path
           id="path7232"
           d="M 4.9298719,0.057520736 C -1.3872731,1.7494689 1.8027579,5.4782079 -4.9448731,7.5462725"
           style="fill:#000000;fill-opacity:1;fill-rule:evenodd;stroke:#000000;stroke-width:1pt;stroke-opacity:1" />
        <rect
           id="rect7234"
           transform="matrix(0.527536,-0.849533,0.887668,0.460484,0,0)"
           y="-1.7408575"
           x="-10.391706"
           height="2.7608147"
           width="2.6366582"
           style="fill-rule:evenodd;stroke-width:1pt;stroke:#000000;stroke-opacity:1;fill:#000000;fill-opacity:1" />
        <rect
           id="rect7236"
           transform="matrix(0.671205,-0.741272,0.790802,0.612072,0,0)"
           y="-7.9629307"
           x="4.9587269"
           height="2.8614161"
           width="2.7327356"
           style="fill-rule:evenodd;stroke-width:1pt;stroke:#000000;stroke-opacity:1;fill:#000000;fill-opacity:1" />
        <path
           id="path7238"
           transform="matrix(0,-1.109517,1.109517,0,25.96648,19.71619)"
           d="M 16.779951 -28.685045 A 0.60731727 0.60731727 0 1 0 15.565317,-28.685045 A 0.60731727 0.60731727 0 1 0 16.779951 -28.685045 z"
           style="fill:#000000;fill-opacity:1;fill-rule:evenodd;stroke:#000000;stroke-width:1pt;stroke-opacity:1" />
        <path
           id="path7240"
           transform="matrix(0,-1.109517,1.109517,0,26.82450,16.99126)"
           d="M 16.779951 -28.685045 A 0.60731727 0.60731727 0 1 0 15.565317,-28.685045 A 0.60731727 0.60731727 0 1 0 16.779951 -28.685045 z"
           style="fill:#000000;fill-opacity:1;fill-rule:evenodd;stroke:#000000;stroke-width:1pt;stroke-opacity:1" />
      </g>
    </marker>
    <marker
       inkscape:stockid="Arrow1Mend"
       orient="auto"
       refY="0.0"
       refX="0.0"
       id="Arrow1Mend"
       style="overflow:visible;"
       inkscape:isstock="true">
      <path
         id="path7025"
         d="M 0.0,0.0 L 5.0,-5.0 L -12.5,0.0 L 5.0,5.0 L 0.0,0.0 z "
         style="fill-rule:evenodd;stroke:#000000;stroke-width:1pt;stroke-opacity:1;fill:#000000;fill-opacity:1"
         transform="scale(0.4) rotate(180) translate(10,0)" />
    </marker>
    <marker
       inkscape:stockid="Arrow2Lend"
       orient="auto"
       refY="0.0"
       refX="0.0"
       id="Arrow2Lend"
       style="overflow:visible;"
       inkscape:isstock="true">
      <path
         id="path7037"
         style="fill-rule:evenodd;stroke-width:0.625;stroke-linejoin:round;stroke:#000000;stroke-opacity:1;fill:#000000;fill-opacity:1"
         d="M 8.7185878,4.0337352 L -2.2072895,0.016013256 L 8.7185884,-4.0017078 C 6.9730900,-1.6296469 6.9831476,1.6157441 8.7185878,4.0337352 z "
         transform="scale(1.1) rotate(180) translate(1,0)" />
    </marker>
    <marker
       inkscape:stockid="Arrow1Lend"
       orient="auto"
       refY="0.0"
       refX="0.0"
       id="Arrow1Lend"
       style="overflow:visible;"
       inkscape:isstock="true">
      <path
         id="path7019"
         d="M 0.0,0.0 L 5.0,-5.0 L -12.5,0.0 L 5.0,5.0 L 0.0,0.0 z "
         style="fill-rule:evenodd;stroke:#000000;stroke-width:1pt;stroke-opacity:1;fill:#000000;fill-opacity:1"
         transform="scale(0.8) rotate(180) translate(12.5,0)" />
    </marker>
    <linearGradient
       inkscape:collect="always"
       xlink:href="#linearGradient1604"
       id="linearGradient1606"
       x1="7.0592496"
       y1="312.54789"
       x2="14.00325"
       y2="312.54789"
       gradientUnits="userSpaceOnUse" />
  </defs>
  <sodipodi:namedview
     inkscape:snap-grids="true"
     inkscape:snap-page="true"
     inkscape:bbox-paths="true"
     inkscape:snap-bbox="true"
     inkscape:snap-others="false"
     inkscape:snap-nodes="false"
     inkscape:snap-object-midpoints="true"
     inkscape:snap-global="true"
     inkscape:window-maximized="1"
     inkscape:window-y="55"
     inkscape:window-x="102"
     inkscape:window-height="2031"
     inkscape:window-width="3738"
     showguides="true"
     units="px"
     showgrid="true"
     inkscape:current-layer="svg8"
     inkscape:document-units="px"
     inkscape:cy="-2.1504975"
     inkscape:cx="-152.55151"
     inkscape:zoom="2.56"
     inkscape:pageshadow="2"
     inkscape:pageopacity="0.0"
     borderopacity="1.0"
     bordercolor="#666666"
     pagecolor="#ffffff"
     id="base">
    <inkscape:grid
       type="xygrid"
       id="grid5055" />
  </sodipodi:namedview>
  <metadata
     id="metadata5">
    <rdf:RDF>
      <cc:Work
         rdf:about="">
        <dc:format>image/svg+xml</dc:format>
        <dc:type
           rdf:resource="http://purl.org/dc/dcmitype/StillImage" />
        <dc:title />
      </cc:Work>
    </rdf:RDF>
  </metadata>
  <path
     d="m 13.337728,8.48457 h 2.657525 L 13.532776,0 H 10.533917 L 8.0592496,8.48457 h 2.6209534 l 0.316953,-1.6457 h 2.011429 z m -1.987049,-3.40113 0.646096,-3.328 0.658286,3.328 z"
     style="font-style:normal;font-variant:normal;font-weight:900;font-stretch:normal;font-size:10.66666698px;line-height:0px;font-family:'Fira Sans';-inkscape-font-specification:'Fira Sans Heavy';letter-spacing:0px;word-spacing:0px;fill:#000000;fill-opacity:1;stroke:none;stroke-width:1.14285755"
     id="path969"
     inkscape:connector-curvature="0" />
  <path
     d="M 14.727442,9.49028 H 9.4855355 v 1.75543 h 2.4624775 l -2.706287,3.072 V 16 h 5.363812 l 0.207239,-1.77982 h -2.75505 l 2.669715,-3.05981 z"
     style="font-style:normal;font-variant:normal;font-weight:900;font-stretch:normal;font-size:10.66666698px;line-height:0px;font-family:'Fira Sans';-inkscape-font-specification:'Fira Sans Heavy';letter-spacing:0px;word-spacing:0px;fill:#000000;fill-opacity:1;stroke:none;stroke-width:1.14285755"
     id="path972"
     inkscape:connector-curvature="0" />
  <use
     style="fill:none;fill-opacity:1;stroke:none"
     height="100%"
     width="100%"
     transform="translate(-1e-7,8.362)"
     id="use885"
     inkscape:transform-center-y="-0.19703419"
     xlink:href="#path881"
     y="0"
     x="0" />
  <path
     inkscape:transform-center-y="-0.39405184"
     d="M 4.0000001,4.2295456e-4 C 4.52325,4.2295251e-4 5.0557024,1.850933 5.4790205,2.1584916 5.9023385,2.4660502 7.8268151,2.4006036 7.9885082,2.8982438 8.1502013,3.3958841 6.5547985,4.4741154 6.3931054,4.9717557 6.2314123,5.4693959 6.8883516,7.2794577 6.4650335,7.5870163 6.0417154,7.8945749 4.5232499,6.7104485 4,6.7104485 c -0.5232499,0 -2.0417156,1.1841263 -2.4650337,0.8765677 C 1.1116483,7.2794576 1.7685877,5.4693959 1.6068946,4.9717557 1.4452015,4.4741154 -0.15020122,3.3958839 0.01149189,2.8982436 0.173185,2.4006034 2.0976615,2.4660501 2.5209795,2.1584916 2.9442976,1.850933 3.4767502,4.2295661e-4 4.0000001,4.2295456e-4 Z"
     inkscape:randomized="0"
     inkscape:rounded="0.2"
     inkscape:flatsided="false"
     sodipodi:arg2="-0.9424778"
     sodipodi:arg1="-1.5707963"
     sodipodi:r2="2.5162599"
     sodipodi:r1="4.1937656"
     sodipodi:cy="4.1941885"
     sodipodi:cx="4"
     sodipodi:sides="5"
     id="path881"
     style="opacity:1;fill:#000000;fill-opacity:1;fill-rule:nonzero;stroke:none;stroke-width:2"
     sodipodi:type="star" />
</svg>
